<?xml version="1.0" encoding="UTF-8" standalone="no"?>
<!DOCTYPE svg PUBLIC "-//W3C//DTD SVG 1.1//EN" "http://www.w3.org/Graphics/SVG/1.1/DTD/svg11.dtd">
<svg xmlns="http://www.w3.org/2000/svg" version="1.1" viewBox="0.00 0.00 1370.00 278.00">
<g stroke-width="2.00" fill="none" stroke-linecap="butt">
<path stroke="#9190cd" vector-effect="non-scaling-stroke" d="
  M 578.23 36.08
  A 0.27 0.27 0.0 0 0 577.96 35.81
  L 21.80 35.81
  A 0.27 0.27 0.0 0 0 21.53 36.08
  L 21.53 44.90
  A 0.27 0.27 0.0 0 0 21.80 45.17
  L 577.96 45.17
  A 0.27 0.27 0.0 0 0 578.23 44.90
  L 578.23 36.08"
/>
<path stroke="#9190cd" vector-effect="non-scaling-stroke" d="
  M 1344.72 36.60
  A 0.37 0.37 0.0 0 0 1344.35 36.23
  L 602.03 36.23
  A 0.37 0.37 0.0 0 0 601.66 36.60
  L 601.66 196.84
  A 0.37 0.37 0.0 0 0 602.03 197.21
  L 1344.35 197.21
  A 0.37 0.37 0.0 0 0 1344.72 196.84
  L 1344.72 36.60"
/>
<path stroke="#9190cd" vector-effect="non-scaling-stroke" d="
  M 55.53 146.61
  Q 70.27 146.95 86.81 146.71
  A 1.04 1.02 79.6 0 1 87.79 147.40
  L 93.13 162.56
  Q 93.73 164.26 95.54 164.19
  Q 106.87 163.74 118.82 164.20
  A 0.77 0.76 81.8 0 0 119.57 163.19
  Q 115.78 151.83 111.79 142.32
  C 109.10 135.88 107.05 129.03 104.43 122.55
  C 99.72 110.90 95.78 99.35 91.10 87.76
  C 88.90 82.29 86.92 76.49 84.93 70.77
  A 1.19 1.19 0.0 0 0 83.81 69.98
  L 58.68 70.00
  A 1.99 1.99 0.0 0 0 56.82 71.28
  L 22.14 162.75
  Q 21.58 164.22 23.15 164.17
  Q 34.18 163.86 46.77 164.08
  A 1.62 1.62 0.0 0 0 48.35 162.92
  Q 50.63 155.20 54.07 147.53
  A 1.58 1.57 -77.1 0 1 55.53 146.61"
/>
<path stroke="#9190cd" vector-effect="non-scaling-stroke" d="
  M 126.80 70.81
  L 126.96 163.29
  A 0.82 0.82 0.0 0 0 127.78 164.11
  L 182.07 164.02
  A 28.27 27.35 -0.1 0 0 210.29 136.62
  L 210.23 97.20
  A 28.27 27.35 -0.1 0 0 181.91 69.90
  L 127.62 69.99
  A 0.82 0.82 0.0 0 0 126.80 70.81"
/>
<path stroke="#9190cd" vector-effect="non-scaling-stroke" d="
  M 292.42 113.50
  C 294.00 112.29 295.74 111.59 297.10 110.08
  C 303.95 102.52 304.71 92.52 301.52 82.93
  C 299.47 76.75 295.34 73.26 288.94 71.53
  Q 282.74 69.86 276.57 69.92
  Q 256.53 70.12 224.53 70.00
  Q 224.01 70.00 224.01 70.53
  L 224.02 163.32
  A 0.80 0.80 0.0 0 0 224.82 164.12
  Q 252.03 163.96 280.27 164.05
  C 294.90 164.09 305.72 159.23 307.24 142.82
  C 308.17 132.68 306.20 123.20 297.60 116.96
  C 296.08 115.86 294.16 115.29 292.49 114.40
  Q 291.75 114.01 292.42 113.50"
/>
<path stroke="#9190cd" vector-effect="non-scaling-stroke" d="
  M 344.54 144.89
  Q 343.95 142.84 343.96 140.88
  Q 344.10 103.22 343.99 71.19
  Q 343.99 69.98 342.78 69.98
  L 320.24 69.96
  Q 318.96 69.96 319.15 71.23
  Q 319.37 72.67 319.37 74.09
  Q 319.39 117.74 319.39 162.98
  A 1.07 1.07 0.0 0 0 320.46 164.05
  L 391.99 164.01
  A 1.01 1.01 0.0 0 0 393.00 163.01
  L 393.01 146.05
  A 0.96 0.96 0.0 0 0 392.05 145.08
  L 344.85 145.12
  A 0.32 0.32 0.0 0 1 344.54 144.89"
/>
<path stroke="#9190cd" vector-effect="non-scaling-stroke" d="
  M 428.90 144.38
  C 427.22 143.20 426.78 139.62 426.77 137.66
  Q 426.72 103.18 426.76 70.53
  A 0.56 0.56 0.0 0 0 426.20 69.97
  L 402.52 69.94
  A 0.44 0.43 -90.0 0 0 402.09 70.38
  Q 402.14 104.19 402.08 135.09
  C 402.06 145.90 404.76 160.72 416.68 163.72
  Q 422.04 165.07 428.22 165.14
  Q 444.52 165.34 459.95 165.19
  Q 466.90 165.12 472.40 163.88
  C 482.43 161.62 487.22 150.44 487.27 140.66
  Q 487.42 107.75 487.33 70.58
  Q 487.33 69.93 486.67 69.93
  L 463.65 70.01
  Q 462.71 70.01 462.84 70.95
  Q 462.96 71.79 462.97 72.62
  Q 463.08 105.28 462.95 137.80
  Q 462.94 140.75 461.38 143.86
  A 1.71 1.66 -0.4 0 1 460.63 144.60
  Q 457.31 146.22 453.75 146.26
  Q 444.32 146.36 434.53 146.13
  Q 431.31 146.05 428.90 144.38"
/>
<path stroke="#9190cd" vector-effect="non-scaling-stroke" d="
  M 528.40 125.72
  L 566.72 125.57
  A 0.79 0.79 0.0 0 0 567.51 124.78
  L 567.53 107.14
  A 0.90 0.89 0.3 0 0 566.64 106.25
  L 528.48 106.25
  A 0.77 0.76 90.0 0 1 527.72 105.48
  L 527.75 89.46
  Q 527.75 88.85 528.35 88.80
  Q 532.09 88.47 535.50 88.48
  Q 556.19 88.57 577.12 88.47
  A 1.19 1.19 0.0 0 0 578.30 87.28
  L 578.26 71.00
  A 1.01 1.00 0.0 0 0 577.25 70.00
  L 504.01 70.01
  A 0.32 0.32 0.0 0 0 503.69 70.33
  L 503.63 163.22
  A 0.85 0.84 -90.0 0 0 504.47 164.07
  L 577.25 164.01
  A 1.01 1.00 90.0 0 0 578.25 163.00
  L 578.24 145.91
  A 0.83 0.83 0.0 0 0 577.41 145.08
  L 528.94 145.14
  A 1.20 1.20 0.0 0 1 527.74 143.94
  L 527.77 126.35
  Q 527.77 125.72 528.40 125.72"
/>
<path stroke="#9190cd" vector-effect="non-scaling-stroke" d="
  M 578.35 188.67
  A 0.60 0.60 0.0 0 0 577.75 188.07
  L 22.11 188.07
  A 0.60 0.60 0.0 0 0 21.51 188.67
  L 21.51 196.95
  A 0.60 0.60 0.0 0 0 22.11 197.55
  L 577.75 197.55
  A 0.60 0.60 0.0 0 0 578.35 196.95
  L 578.35 188.67"
/>
<path stroke="#9190cd" vector-effect="non-scaling-stroke" d="
  M 515.09 225.16
  L 512.49 225.16
  A 0.93 0.93 0.0 0 0 511.55 226.08
  L 511.53 233.19
  A 6.88 1.16 -89.8 0 0 512.66 240.08
  L 514.80 240.08
  A 6.88 1.16 -89.8 0 0 515.99 233.21
  L 516.01 226.10
  A 0.93 0.93 0.0 0 0 515.09 225.16"
/>
<path stroke="#9190cd" vector-effect="non-scaling-stroke" d="
  M 543.38 233.22
  Q 544.77 234.15 545.73 232.78
  L 545.99 232.39
  Q 547.08 230.82 545.55 229.66
  Q 541.75 226.77 536.49 226.38
  C 529.79 225.88 523.75 231.45 525.15 238.61
  C 526.14 243.63 533.31 246.10 537.45 247.74
  C 541.50 249.34 545.57 253.04 541.92 257.61
  C 538.24 262.20 530.94 260.17 527.38 256.70
  Q 525.83 255.20 524.48 256.88
  L 524.25 257.16
  Q 522.91 258.82 524.62 260.08
  Q 527.65 262.32 530.02 263.28
  Q 533.71 264.77 540.45 263.30
  C 544.26 262.47 547.29 259.33 547.87 255.57
  Q 549.06 247.95 541.62 244.61
  Q 537.83 242.90 533.82 241.40
  C 530.46 240.15 528.17 237.07 530.04 233.55
  C 532.34 229.21 540.25 231.13 543.38 233.22"
/>
<path stroke="#9190cd" vector-effect="non-scaling-stroke" d="
  M 870.76 251.16
  A 1.27 1.27 0.0 0 0 871.59 252.32
  L 872.55 252.67
  A 1.27 1.27 0.0 0 0 874.26 251.52
  L 874.97 227.47
  A 1.27 1.27 0.0 0 0 873.70 226.17
  L 871.43 226.16
  A 1.27 1.27 0.0 0 0 870.16 227.46
  L 870.76 251.16"
/>
<path stroke="#9190cd" vector-effect="non-scaling-stroke" d="
  M 846.1600 264.2200
  A 19.00 15.76 90.0 0 0 861.9200 245.2200
  A 19.00 15.76 90.0 0 0 846.1600 226.2200
  A 19.00 15.76 90.0 0 0 830.4000 245.2200
  A 19.00 15.76 90.0 0 0 846.1600 264.2200"
/>
<path stroke="#9190cd" vector-effect="non-scaling-stroke" d="
  M 572.68 257.50
  C 572.11 254.60 572.10 251.55 571.48 248.67
  Q 569.46 239.28 567.75 228.49
  A 1.51 1.49 -0.2 0 0 566.48 227.24
  Q 564.97 227.02 563.55 227.22
  Q 562.68 227.34 562.89 228.20
  Q 566.65 243.81 569.16 258.46
  Q 569.44 260.12 570.59 263.17
  Q 570.80 263.72 571.39 263.70
  L 575.05 263.53
  A 0.81 0.79 12.0 0 0 575.73 263.10
  Q 576.34 261.94 576.66 260.56
  Q 579.79 247.03 582.57 234.27
  Q 583.01 232.24 583.50 234.26
  L 590.19 262.18
  Q 590.56 263.73 592.15 263.64
  L 595.34 263.45
  A 1.10 1.09 3.3 0 0 596.36 262.55
  Q 599.11 247.33 602.50 232.19
  Q 602.88 230.49 603.46 228.54
  Q 603.93 226.94 602.27 227.11
  L 600.49 227.29
  Q 599.10 227.44 598.87 228.82
  Q 596.41 243.29 593.47 257.50
  Q 593.41 257.83 593.19 257.94
  A 0.27 0.27 0.0 0 1 592.80 257.77
  L 585.64 227.96
  Q 585.42 227.05 584.48 227.11
  L 582.11 227.26
  A 1.37 1.37 0.0 0 0 580.86 228.30
  Q 577.76 240.74 574.96 252.94
  Q 574.41 255.32 573.49 257.58
  Q 572.95 258.91 572.68 257.50"
/>
<path stroke="#9190cd" vector-effect="non-scaling-stroke" d="
  M 631.47 241.32
  A 1.10 1.10 0.0 0 1 630.38 242.43
  L 615.62 242.50
  A 1.10 1.10 0.0 0 1 614.52 241.40
  L 614.57 228.24
  A 1.10 1.10 0.0 0 0 613.46 227.14
  L 610.99 227.17
  A 1.10 1.10 0.0 0 0 609.90 228.28
  L 609.98 262.55
  A 1.10 1.10 0.0 0 0 611.08 263.65
  L 613.48 263.66
  A 1.10 1.10 0.0 0 0 614.58 262.56
  L 614.56 247.31
  A 1.10 1.10 0.0 0 1 615.67 246.21
  L 630.33 246.30
  A 1.10 1.10 0.0 0 1 631.42 247.40
  L 631.39 262.60
  A 1.10 1.10 0.0 0 0 632.48 263.70
  L 635.01 263.73
  A 1.10 1.10 0.0 0 0 636.12 262.63
  L 636.11 228.19
  A 1.10 1.10 0.0 0 0 634.95 227.09
  L 632.39 227.24
  A 1.10 1.10 0.0 0 0 631.35 228.35
  L 631.47 241.32"
/>
<path stroke="#9190cd" vector-effect="non-scaling-stroke" d="
  M 649.17 252.77
  A 0.59 0.57 7.4 0 1 649.72 252.36
  L 661.89 252.29
  A 1.20 1.19 80.7 0 1 663.04 253.12
  L 665.96 262.22
  A 2.31 2.31 0.0 0 0 668.20 263.83
  L 669.13 263.81
  Q 670.76 263.78 670.28 262.23
  Q 665.24 245.65 658.85 228.48
  Q 658.67 228.01 658.25 227.72
  C 653.59 224.50 651.91 231.44 651.05 234.26
  Q 646.58 248.87 641.67 262.12
  Q 641.06 263.75 642.81 263.76
  L 644.28 263.76
  Q 645.93 263.77 646.40 262.18
  L 649.17 252.77"
/>
<path stroke="#9190cd" vector-effect="non-scaling-stroke" d="
  M 741.74 257.07
  Q 741.22 259.39 740.78 257.05
  Q 738.41 244.29 734.13 228.45
  C 733.49 226.08 729.73 226.83 729.24 228.81
  Q 725.82 242.44 722.55 256.49
  Q 722.38 257.25 721.93 257.89
  Q 721.46 258.58 721.31 257.75
  L 716.21 228.57
  Q 715.93 226.97 714.32 227.11
  L 712.00 227.32
  Q 710.94 227.41 711.20 228.44
  Q 714.78 242.75 717.50 256.96
  Q 718.05 259.84 718.89 262.76
  Q 719.04 263.31 719.59 263.46
  Q 721.51 263.98 723.51 263.51
  A 1.31 1.30 -86.6 0 0 724.45 262.67
  Q 724.90 261.46 725.26 259.99
  Q 728.44 246.85 730.83 234.30
  Q 731.13 232.73 731.58 234.27
  Q 735.48 247.77 738.62 262.04
  A 1.92 1.91 1.3 0 0 740.00 263.48
  C 744.97 264.81 745.09 261.85 745.70 258.48
  Q 748.37 243.62 751.63 228.66
  Q 752.09 226.57 749.99 227.00
  L 749.30 227.14
  Q 747.58 227.49 747.29 229.22
  Q 745.09 242.18 741.74 257.07"
/>
<path stroke="#9190cd" vector-effect="non-scaling-stroke" d="
  M 470.87 227.28
  L 468.51 227.30
  A 0.85 0.85 0.0 0 0 467.67 228.15
  L 467.81 248.49
  A 15.01 1.37 89.6 0 0 469.29 263.49
  L 470.61 263.48
  A 15.01 1.37 89.6 0 0 471.87 248.47
  L 471.73 228.13
  A 0.85 0.85 0.0 0 0 470.87 227.28"
/>
<path stroke="#9190cd" vector-effect="non-scaling-stroke" d="
  M 489.66 231.82
  Q 490.08 234.30 489.97 236.92
  Q 489.49 248.36 490.66 262.24
  Q 490.81 264.08 492.56 263.37
  A 1.12 1.11 84.3 0 0 493.24 262.53
  Q 493.84 259.26 493.98 255.76
  Q 494.40 244.89 493.90 232.34
  A 1.32 1.32 0.0 0 1 495.24 230.97
  L 504.03 231.09
  A 1.58 1.58 0.0 0 0 505.61 229.73
  L 505.75 228.69
  Q 505.96 227.18 504.44 227.20
  L 480.03 227.56
  Q 478.48 227.58 478.38 229.12
  L 478.35 229.54
  Q 478.26 230.82 479.54 230.87
  L 489.01 231.25
  Q 489.57 231.27 489.66 231.82"
/>
<path stroke="#9190cd" vector-effect="non-scaling-stroke" d="
  M 680.60 231.19
  A 0.85 0.85 0.0 0 1 681.46 232.04
  L 681.51 262.72
  A 0.85 0.85 0.0 0 0 682.29 263.56
  L 685.16 263.80
  A 0.85 0.85 0.0 0 0 686.08 262.95
  L 686.10 232.08
  A 0.85 0.85 0.0 0 1 686.95 231.23
  L 696.26 231.18
  A 0.85 0.85 0.0 0 0 697.10 230.41
  L 697.30 228.19
  A 0.85 0.85 0.0 0 0 696.46 227.26
  L 671.19 227.23
  A 0.85 0.85 0.0 0 0 670.34 228.05
  L 670.26 230.41
  A 0.85 0.85 0.0 0 0 671.12 231.29
  L 680.60 231.19"
/>
<path stroke="#9190cd" vector-effect="non-scaling-stroke" d="
  M 762.90 247.03
  A 0.75 0.75 0.0 0 1 763.62 246.29
  L 776.09 245.88
  A 0.75 0.75 0.0 0 0 776.82 245.10
  L 776.74 243.41
  A 0.75 0.75 0.0 0 0 776.01 242.69
  L 763.59 242.40
  A 0.75 0.75 0.0 0 1 762.86 241.65
  L 762.84 231.96
  A 0.75 0.75 0.0 0 1 763.58 231.21
  L 778.35 230.95
  A 0.75 0.75 0.0 0 0 779.07 230.31
  L 779.38 228.29
  A 0.75 0.75 0.0 0 0 778.65 227.43
  L 759.19 227.17
  A 0.75 0.75 0.0 0 0 758.43 227.92
  L 758.48 262.87
  A 0.75 0.75 0.0 0 0 759.25 263.62
  L 778.88 263.12
  A 0.75 0.75 0.0 0 0 779.61 262.31
  L 779.48 260.71
  A 0.75 0.75 0.0 0 0 778.76 260.02
  L 763.60 259.50
  A 0.75 0.75 0.0 0 1 762.87 258.75
  L 762.90 247.03"
/>
<path stroke="#9190cd" vector-effect="non-scaling-stroke" d="
  M 798.64 228.20
  L 798.82 262.74
  A 1.02 1.02 0.0 0 0 799.85 263.75
  L 808.45 263.71
  A 16.76 16.73 -0.3 0 0 825.12 246.89
  L 825.10 243.77
  A 16.76 16.73 -0.3 0 0 808.25 227.13
  L 799.65 227.17
  A 1.02 1.02 0.0 0 0 798.64 228.20"
/>
<path stroke="#9190cd" vector-effect="non-scaling-stroke" d="
  M 876.07 260.70
  A 3.41 3.41 0.0 0 0 872.66 257.29
  A 3.41 3.41 0.0 0 0 869.25 260.70
  A 3.41 3.41 0.0 0 0 872.66 264.11
  A 3.41 3.41 0.0 0 0 876.07 260.70"
/>
<path stroke="#9190cd" vector-effect="non-scaling-stroke" d="
  M 718.69 80.61
  Q 716.10 87.19 716.12 96.66
  Q 716.17 115.78 716.13 136.06
  C 716.10 150.32 719.83 163.78 736.38 164.68
  Q 752.48 165.56 779.75 164.94
  C 788.01 164.76 795.79 163.09 799.76 155.14
  C 804.22 146.23 803.98 135.71 803.90 125.84
  Q 803.78 111.18 803.71 96.78
  C 803.68 89.54 802.27 80.70 797.55 75.40
  C 792.86 70.14 783.96 68.09 776.67 68.09
  Q 759.24 68.10 742.15 68.15
  C 733.14 68.18 722.20 71.71 718.69 80.61"
/>
<path stroke="#9190cd" vector-effect="non-scaling-stroke" d="
  M 1226.1950 90.9364
  A 22.59 22.59 0.0 0 0 1203.6445 68.3070
  L 1161.2846 68.2331
  A 22.59 22.59 0.0 0 0 1138.6552 90.7836
  L 1138.5650 142.4636
  A 22.59 22.59 0.0 0 0 1161.1155 165.0930
  L 1203.4754 165.1669
  A 22.59 22.59 0.0 0 0 1226.1048 142.6164
  L 1226.1950 90.9364"
/>
<path stroke="#9190cd" vector-effect="non-scaling-stroke" d="
  M 682.15 128.52
  C 682.23 132.91 682.63 138.19 681.70 142.45
  Q 680.93 146.01 677.04 146.13
  Q 666.46 146.44 654.75 145.85
  Q 640.46 145.13 626.79 144.44
  Q 625.77 144.38 625.77 145.40
  L 625.76 162.12
  A 0.86 0.86 0.0 0 0 626.57 162.98
  Q 648.31 164.47 669.68 164.86
  C 675.79 164.97 682.11 165.41 687.84 164.53
  Q 705.72 161.77 706.47 143.12
  Q 706.82 134.40 706.10 126.36
  Q 705.66 121.46 702.45 116.35
  C 698.65 110.30 690.62 107.72 683.99 107.49
  Q 672.58 107.09 657.46 107.28
  Q 654.15 107.33 651.53 106.06
  C 647.56 104.14 647.79 93.58 650.75 90.62
  C 653.19 88.17 658.26 88.28 661.51 88.29
  Q 678.90 88.37 697.82 88.33
  Q 698.65 88.33 698.65 87.50
  L 698.69 71.17
  A 1.02 1.01 -90.0 0 0 697.68 70.15
  Q 672.41 70.13 648.75 70.21
  C 641.00 70.24 631.06 73.17 627.53 80.86
  C 624.12 88.29 624.10 98.17 624.98 106.25
  C 626.06 116.13 629.73 123.93 640.29 126.04
  Q 648.44 127.66 657.68 127.69
  Q 669.53 127.72 681.24 127.63
  Q 682.14 127.62 682.15 128.52"
/>
<path stroke="#9190cd" vector-effect="non-scaling-stroke" d="
  M 842.00 145.23
  A 0.77 0.77 0.0 0 1 841.23 144.46
  Q 841.10 109.23 841.16 75.14
  C 841.17 73.74 841.40 72.21 841.54 70.82
  Q 841.61 70.11 840.90 70.11
  L 818.04 70.09
  Q 816.87 70.08 817.07 71.23
  Q 817.23 72.19 817.23 73.14
  Q 817.38 118.63 817.26 163.12
  A 0.75 0.75 0.0 0 0 818.01 163.87
  L 890.11 163.99
  A 0.16 0.16 0.0 0 0 890.27 163.83
  L 890.26 145.84
  Q 890.26 145.17 889.59 145.17
  L 842.00 145.23"
/>
<path stroke="#9190cd" vector-effect="non-scaling-stroke" d="
  M 933.07 146.27
  C 930.51 146.15 926.35 145.65 925.36 142.75
  Q 924.26 139.55 924.26 136.55
  Q 924.25 103.76 924.25 70.74
  Q 924.25 70.35 923.87 70.33
  Q 912.28 69.73 900.53 70.21
  Q 899.93 70.24 899.93 70.84
  Q 900.00 105.45 900.04 140.25
  C 900.05 149.55 904.76 161.45 914.61 163.81
  Q 918.97 164.85 924.07 164.96
  Q 944.28 165.38 962.02 164.90
  C 969.13 164.70 976.09 163.14 980.07 156.67
  Q 984.14 150.05 984.56 143.93
  Q 985.04 137.03 985.02 130.73
  Q 984.97 101.56 984.88 71.16
  A 0.81 0.80 -88.9 0 0 984.12 70.36
  Q 973.34 69.77 961.11 70.26
  Q 960.53 70.28 960.54 70.85
  Q 960.73 108.09 960.45 138.74
  Q 960.39 145.72 952.99 146.16
  Q 943.21 146.73 933.07 146.27"
/>
<path stroke="#9190cd" vector-effect="non-scaling-stroke" d="
  M 1021.32 88.27
  Q 1022.55 88.27 1022.55 89.49
  Q 1022.65 127.03 1022.75 159.31
  Q 1022.76 161.16 1023.05 163.02
  A 0.97 0.97 0.0 0 0 1024.00 163.84
  L 1045.94 164.03
  A 0.70 0.70 0.0 0 0 1046.63 163.42
  Q 1046.99 160.51 1046.99 157.50
  Q 1046.96 123.12 1046.97 89.40
  Q 1046.98 88.38 1048.00 88.38
  L 1074.99 88.33
  A 0.55 0.54 -2.0 0 0 1075.53 87.76
  Q 1075.11 79.18 1075.59 70.82
  A 0.62 0.62 0.0 0 0 1074.97 70.16
  L 994.76 70.19
  A 0.30 0.30 0.0 0 0 994.46 70.49
  L 994.52 87.35
  Q 994.53 88.43 995.60 88.43
  L 1021.32 88.27"
/>
<path stroke="#9190cd" vector-effect="non-scaling-stroke" d="
  M 1091.89 88.52
  A 0.87 0.86 -89.3 0 1 1092.73 89.39
  L 1092.77 143.98
  Q 1092.77 145.23 1091.52 145.23
  L 1081.57 145.24
  A 0.72 0.71 2.1 0 0 1080.85 145.90
  Q 1080.17 154.00 1080.67 163.10
  Q 1080.70 163.67 1081.27 163.70
  Q 1085.80 163.97 1089.75 163.94
  Q 1108.91 163.79 1128.22 164.00
  A 0.77 0.76 -89.6 0 0 1128.99 163.23
  L 1128.98 145.72
  A 0.51 0.51 0.0 0 0 1128.47 145.21
  L 1118.37 145.20
  A 1.38 1.37 90.0 0 1 1117.00 143.82
  L 1117.01 89.06
  A 0.68 0.68 0.0 0 1 1117.68 88.38
  L 1128.49 88.24
  A 0.60 0.60 0.0 0 0 1129.08 87.62
  Q 1128.82 79.11 1129.18 70.87
  Q 1129.21 70.14 1128.48 70.14
  L 1080.73 70.17
  A 0.35 0.35 0.0 0 0 1080.38 70.52
  L 1080.52 87.52
  A 0.77 0.76 0.8 0 0 1081.27 88.28
  L 1091.89 88.52"
/>
<path stroke="#9190cd" vector-effect="non-scaling-stroke" d="
  M 1296.88 124.74
  Q 1287.66 109.17 1278.46 92.81
  C 1274.32 85.43 1269.72 78.48 1266.10 70.88
  A 1.53 1.52 76.9 0 0 1264.73 70.02
  L 1240.04 70.16
  A 0.69 0.68 87.0 0 0 1239.36 70.92
  Q 1239.54 72.48 1239.54 73.99
  Q 1239.68 116.86 1239.55 163.09
  A 0.90 0.90 0.0 0 0 1240.45 163.99
  L 1262.62 164.00
  Q 1263.97 164.00 1263.98 162.65
  Q 1264.07 138.87 1263.91 112.36
  Q 1263.90 110.69 1264.30 108.98
  Q 1264.68 107.35 1265.35 108.88
  Q 1267.71 114.24 1270.92 119.81
  C 1279.38 134.48 1287.53 149.07 1296.09 163.36
  Q 1296.46 163.98 1297.18 163.98
  L 1320.30 164.00
  Q 1321.72 164.00 1321.72 162.58
  Q 1321.79 118.59 1321.74 76.47
  Q 1321.74 74.01 1321.42 71.60
  Q 1321.22 70.17 1319.79 70.12
  Q 1308.74 69.73 1297.75 70.32
  Q 1297.55 70.33 1297.55 70.53
  L 1297.62 124.54
  A 0.40 0.40 0.0 0 1 1296.88 124.74"
/>
<path stroke="#9190cd" vector-effect="non-scaling-stroke" d="
  M 779.29 94.13
  A 7.39 7.39 0.0 0 0 771.90 86.74
  L 747.60 86.74
  A 7.39 7.39 0.0 0 0 740.21 94.13
  L 740.21 138.97
  A 7.39 7.39 0.0 0 0 747.60 146.36
  L 771.90 146.36
  A 7.39 7.39 0.0 0 0 779.29 138.97
  L 779.29 94.13"
/>
<path stroke="#9190cd" vector-effect="non-scaling-stroke" d="
  M 1201.89 94.53
  A 7.78 7.78 0.0 0 0 1194.11 86.75
  L 1170.53 86.75
  A 7.78 7.78 0.0 0 0 1162.75 94.53
  L 1162.75 138.61
  A 7.78 7.78 0.0 0 0 1170.53 146.39
  L 1194.11 146.39
  A 7.78 7.78 0.0 0 0 1201.89 138.61
  L 1201.89 94.53"
/>
<path stroke="#9190cd" vector-effect="non-scaling-stroke" d="
  M 60.28 128.98
  A 0.41 0.41 0.0 0 0 60.67 129.52
  L 81.04 129.56
  A 0.41 0.41 0.0 0 0 81.42 129.02
  L 71.29 98.83
  A 0.41 0.41 0.0 0 0 70.52 98.83
  L 60.28 128.98"
/>
<path stroke="#9190cd" vector-effect="non-scaling-stroke" d="
  M 150.81 89.79
  L 151.09 143.99
  A 1.21 1.21 0.0 0 0 152.31 145.20
  L 174.04 145.08
  A 12.36 11.91 -0.3 0 0 186.34 133.11
  L 186.16 100.31
  A 12.36 11.91 -0.3 0 0 173.74 88.46
  L 152.01 88.58
  A 1.21 1.21 0.0 0 0 150.81 89.79"
/>
<path stroke="#9190cd" vector-effect="non-scaling-stroke" d="
  M 248.06 89.75
  L 248.12 106.09
  A 1.18 1.18 0.0 0 0 249.30 107.27
  L 271.53 107.19
  A 7.47 6.92 -0.2 0 0 278.98 100.25
  L 278.96 95.39
  A 7.47 6.92 -0.2 0 0 271.47 88.49
  L 249.24 88.57
  A 1.18 1.18 0.0 0 0 248.06 89.75"
/>
<path stroke="#9190cd" vector-effect="non-scaling-stroke" d="
  M 248.11 127.02
  L 248.11 144.06
  A 1.05 1.05 0.0 0 0 249.16 145.11
  L 275.18 145.11
  A 8.20 7.93 90.0 0 0 283.11 136.91
  L 283.11 134.17
  A 8.20 7.93 -90.0 0 0 275.18 125.97
  L 249.16 125.97
  A 1.05 1.05 0.0 0 0 248.11 127.02"
/>
<path stroke="#9190cd" vector-effect="non-scaling-stroke" d="
  M 846.1005 260.2094
  A 14.84 10.93 90.5 0 0 857.1596 245.4654
  A 14.84 10.93 90.5 0 0 846.3595 230.5306
  A 14.84 10.93 90.5 0 0 835.3004 245.2746
  A 14.84 10.93 90.5 0 0 846.1005 260.2094"
/>
<path stroke="#9190cd" vector-effect="non-scaling-stroke" d="
  M 650.49 247.97
  A 0.32 0.32 0.0 0 0 650.79 248.39
  L 660.95 248.66
  A 0.32 0.32 0.0 0 0 661.27 248.25
  L 656.60 232.08
  A 0.32 0.32 0.0 0 0 655.99 232.07
  L 650.49 247.97"
/>
<path stroke="#9190cd" vector-effect="non-scaling-stroke" d="
  M 803.56 231.67
  L 803.32 259.21
  A 0.61 0.61 0.0 0 0 803.92 259.82
  L 808.25 259.86
  A 11.93 11.60 -89.5 0 0 819.96 248.03
  L 820.00 243.13
  A 11.93 11.60 -89.5 0 0 808.51 231.10
  L 804.18 231.06
  A 0.61 0.61 0.0 0 0 803.56 231.67"
/>
</g>
<path fill="#ffffff" d="
  M 0.00 0.00
  L 1370.00 0.00
  L 1370.00 278.00
  L 0.00 278.00
  L 0.00 0.00
  Z
  M 578.23 36.08
  A 0.27 0.27 0.0 0 0 577.96 35.81
  L 21.80 35.81
  A 0.27 0.27 0.0 0 0 21.53 36.08
  L 21.53 44.90
  A 0.27 0.27 0.0 0 0 21.80 45.17
  L 577.96 45.17
  A 0.27 0.27 0.0 0 0 578.23 44.90
  L 578.23 36.08
  Z
  M 1344.72 36.60
  A 0.37 0.37 0.0 0 0 1344.35 36.23
  L 602.03 36.23
  A 0.37 0.37 0.0 0 0 601.66 36.60
  L 601.66 196.84
  A 0.37 0.37 0.0 0 0 602.03 197.21
  L 1344.35 197.21
  A 0.37 0.37 0.0 0 0 1344.72 196.84
  L 1344.72 36.60
  Z
  M 55.53 146.61
  Q 70.27 146.95 86.81 146.71
  A 1.04 1.02 79.6 0 1 87.79 147.40
  L 93.13 162.56
  Q 93.73 164.26 95.54 164.19
  Q 106.87 163.74 118.82 164.20
  A 0.77 0.76 81.8 0 0 119.57 163.19
  Q 115.78 151.83 111.79 142.32
  C 109.10 135.88 107.05 129.03 104.43 122.55
  C 99.72 110.90 95.78 99.35 91.10 87.76
  C 88.90 82.29 86.92 76.49 84.93 70.77
  A 1.19 1.19 0.0 0 0 83.81 69.98
  L 58.68 70.00
  A 1.99 1.99 0.0 0 0 56.82 71.28
  L 22.14 162.75
  Q 21.58 164.22 23.15 164.17
  Q 34.18 163.86 46.77 164.08
  A 1.62 1.62 0.0 0 0 48.35 162.92
  Q 50.63 155.20 54.07 147.53
  A 1.58 1.57 -77.1 0 1 55.53 146.61
  Z
  M 126.80 70.81
  L 126.96 163.29
  A 0.82 0.82 0.0 0 0 127.78 164.11
  L 182.07 164.02
  A 28.27 27.35 -0.1 0 0 210.29 136.62
  L 210.23 97.20
  A 28.27 27.35 -0.1 0 0 181.91 69.90
  L 127.62 69.99
  A 0.82 0.82 0.0 0 0 126.80 70.81
  Z
  M 292.42 113.50
  C 294.00 112.29 295.74 111.59 297.10 110.08
  C 303.95 102.52 304.71 92.52 301.52 82.93
  C 299.47 76.75 295.34 73.26 288.94 71.53
  Q 282.74 69.86 276.57 69.92
  Q 256.53 70.12 224.53 70.00
  Q 224.01 70.00 224.01 70.53
  L 224.02 163.32
  A 0.80 0.80 0.0 0 0 224.82 164.12
  Q 252.03 163.96 280.27 164.05
  C 294.90 164.09 305.72 159.23 307.24 142.82
  C 308.17 132.68 306.20 123.20 297.60 116.96
  C 296.08 115.86 294.16 115.29 292.49 114.40
  Q 291.75 114.01 292.42 113.50
  Z
  M 344.54 144.89
  Q 343.95 142.84 343.96 140.88
  Q 344.10 103.22 343.99 71.19
  Q 343.99 69.98 342.78 69.98
  L 320.24 69.96
  Q 318.96 69.96 319.15 71.23
  Q 319.37 72.67 319.37 74.09
  Q 319.39 117.74 319.39 162.98
  A 1.07 1.07 0.0 0 0 320.46 164.05
  L 391.99 164.01
  A 1.01 1.01 0.0 0 0 393.00 163.01
  L 393.01 146.05
  A 0.96 0.96 0.0 0 0 392.05 145.08
  L 344.85 145.12
  A 0.32 0.32 0.0 0 1 344.54 144.89
  Z
  M 428.90 144.38
  C 427.22 143.20 426.78 139.62 426.77 137.66
  Q 426.72 103.18 426.76 70.53
  A 0.56 0.56 0.0 0 0 426.20 69.97
  L 402.52 69.94
  A 0.44 0.43 -90.0 0 0 402.09 70.38
  Q 402.14 104.19 402.08 135.09
  C 402.06 145.90 404.76 160.72 416.68 163.72
  Q 422.04 165.07 428.22 165.14
  Q 444.52 165.34 459.95 165.19
  Q 466.90 165.12 472.40 163.88
  C 482.43 161.62 487.22 150.44 487.27 140.66
  Q 487.42 107.75 487.33 70.58
  Q 487.33 69.93 486.67 69.93
  L 463.65 70.01
  Q 462.71 70.01 462.84 70.95
  Q 462.96 71.79 462.97 72.62
  Q 463.08 105.28 462.95 137.80
  Q 462.94 140.75 461.38 143.86
  A 1.71 1.66 -0.4 0 1 460.63 144.60
  Q 457.31 146.22 453.75 146.26
  Q 444.32 146.36 434.53 146.13
  Q 431.31 146.05 428.90 144.38
  Z
  M 528.40 125.72
  L 566.72 125.57
  A 0.79 0.79 0.0 0 0 567.51 124.78
  L 567.53 107.14
  A 0.90 0.89 0.3 0 0 566.64 106.25
  L 528.48 106.25
  A 0.77 0.76 90.0 0 1 527.72 105.48
  L 527.75 89.46
  Q 527.75 88.85 528.35 88.80
  Q 532.09 88.47 535.50 88.48
  Q 556.19 88.57 577.12 88.47
  A 1.19 1.19 0.0 0 0 578.30 87.28
  L 578.26 71.00
  A 1.01 1.00 0.0 0 0 577.25 70.00
  L 504.01 70.01
  A 0.32 0.32 0.0 0 0 503.69 70.33
  L 503.63 163.22
  A 0.85 0.84 -90.0 0 0 504.47 164.07
  L 577.25 164.01
  A 1.01 1.00 90.0 0 0 578.25 163.00
  L 578.24 145.91
  A 0.83 0.83 0.0 0 0 577.41 145.08
  L 528.94 145.14
  A 1.20 1.20 0.0 0 1 527.74 143.94
  L 527.77 126.35
  Q 527.77 125.72 528.40 125.72
  Z
  M 578.35 188.67
  A 0.60 0.60 0.0 0 0 577.75 188.07
  L 22.11 188.07
  A 0.60 0.60 0.0 0 0 21.51 188.67
  L 21.51 196.95
  A 0.60 0.60 0.0 0 0 22.11 197.55
  L 577.75 197.55
  A 0.60 0.60 0.0 0 0 578.35 196.95
  L 578.35 188.67
  Z
  M 515.09 225.16
  L 512.49 225.16
  A 0.93 0.93 0.0 0 0 511.55 226.08
  L 511.53 233.19
  A 6.88 1.16 -89.8 0 0 512.66 240.08
  L 514.80 240.08
  A 6.88 1.16 -89.8 0 0 515.99 233.21
  L 516.01 226.10
  A 0.93 0.93 0.0 0 0 515.09 225.16
  Z
  M 543.38 233.22
  Q 544.77 234.15 545.73 232.78
  L 545.99 232.39
  Q 547.08 230.82 545.55 229.66
  Q 541.75 226.77 536.49 226.38
  C 529.79 225.88 523.75 231.45 525.15 238.61
  C 526.14 243.63 533.31 246.10 537.45 247.74
  C 541.50 249.34 545.57 253.04 541.92 257.61
  C 538.24 262.20 530.94 260.17 527.38 256.70
  Q 525.83 255.20 524.48 256.88
  L 524.25 257.16
  Q 522.91 258.82 524.62 260.08
  Q 527.65 262.32 530.02 263.28
  Q 533.71 264.77 540.45 263.30
  C 544.26 262.47 547.29 259.33 547.87 255.57
  Q 549.06 247.95 541.62 244.61
  Q 537.83 242.90 533.82 241.40
  C 530.46 240.15 528.17 237.07 530.04 233.55
  C 532.34 229.21 540.25 231.13 543.38 233.22
  Z
  M 870.76 251.16
  A 1.27 1.27 0.0 0 0 871.59 252.32
  L 872.55 252.67
  A 1.27 1.27 0.0 0 0 874.26 251.52
  L 874.97 227.47
  A 1.27 1.27 0.0 0 0 873.70 226.17
  L 871.43 226.16
  A 1.27 1.27 0.0 0 0 870.16 227.46
  L 870.76 251.16
  Z
  M 846.1600 264.2200
  A 19.00 15.76 90.0 0 0 861.9200 245.2200
  A 19.00 15.76 90.0 0 0 846.1600 226.2200
  A 19.00 15.76 90.0 0 0 830.4000 245.2200
  A 19.00 15.76 90.0 0 0 846.1600 264.2200
  Z
  M 572.68 257.50
  C 572.11 254.60 572.10 251.55 571.48 248.67
  Q 569.46 239.28 567.75 228.49
  A 1.51 1.49 -0.2 0 0 566.48 227.24
  Q 564.97 227.02 563.55 227.22
  Q 562.68 227.34 562.89 228.20
  Q 566.65 243.81 569.16 258.46
  Q 569.44 260.12 570.59 263.17
  Q 570.80 263.72 571.39 263.70
  L 575.05 263.53
  A 0.81 0.79 12.0 0 0 575.73 263.10
  Q 576.34 261.94 576.66 260.56
  Q 579.79 247.03 582.57 234.27
  Q 583.01 232.24 583.50 234.26
  L 590.19 262.18
  Q 590.56 263.73 592.15 263.64
  L 595.34 263.45
  A 1.10 1.09 3.3 0 0 596.36 262.55
  Q 599.11 247.33 602.50 232.19
  Q 602.88 230.49 603.46 228.54
  Q 603.93 226.94 602.27 227.11
  L 600.49 227.29
  Q 599.10 227.44 598.87 228.82
  Q 596.41 243.29 593.47 257.50
  Q 593.41 257.83 593.19 257.94
  A 0.27 0.27 0.0 0 1 592.80 257.77
  L 585.64 227.96
  Q 585.42 227.05 584.48 227.11
  L 582.11 227.26
  A 1.37 1.37 0.0 0 0 580.86 228.30
  Q 577.76 240.74 574.96 252.94
  Q 574.41 255.32 573.49 257.58
  Q 572.95 258.91 572.68 257.50
  Z
  M 631.47 241.32
  A 1.10 1.10 0.0 0 1 630.38 242.43
  L 615.62 242.50
  A 1.10 1.10 0.0 0 1 614.52 241.40
  L 614.57 228.24
  A 1.10 1.10 0.0 0 0 613.46 227.14
  L 610.99 227.17
  A 1.10 1.10 0.0 0 0 609.90 228.28
  L 609.98 262.55
  A 1.10 1.10 0.0 0 0 611.08 263.65
  L 613.48 263.66
  A 1.10 1.10 0.0 0 0 614.58 262.56
  L 614.56 247.31
  A 1.10 1.10 0.0 0 1 615.67 246.21
  L 630.33 246.30
  A 1.10 1.10 0.0 0 1 631.42 247.40
  L 631.39 262.60
  A 1.10 1.10 0.0 0 0 632.48 263.70
  L 635.01 263.73
  A 1.10 1.10 0.0 0 0 636.12 262.63
  L 636.11 228.19
  A 1.10 1.10 0.0 0 0 634.95 227.09
  L 632.39 227.24
  A 1.10 1.10 0.0 0 0 631.35 228.35
  L 631.47 241.32
  Z
  M 649.17 252.77
  A 0.59 0.57 7.4 0 1 649.72 252.36
  L 661.89 252.29
  A 1.20 1.19 80.7 0 1 663.04 253.12
  L 665.96 262.22
  A 2.31 2.31 0.0 0 0 668.20 263.83
  L 669.13 263.81
  Q 670.76 263.78 670.28 262.23
  Q 665.24 245.65 658.85 228.48
  Q 658.67 228.01 658.25 227.72
  C 653.59 224.50 651.91 231.44 651.05 234.26
  Q 646.58 248.87 641.67 262.12
  Q 641.06 263.75 642.81 263.76
  L 644.28 263.76
  Q 645.93 263.77 646.40 262.18
  L 649.17 252.77
  Z
  M 741.74 257.07
  Q 741.22 259.39 740.78 257.05
  Q 738.41 244.29 734.13 228.45
  C 733.49 226.08 729.73 226.83 729.24 228.81
  Q 725.82 242.44 722.55 256.49
  Q 722.38 257.25 721.93 257.89
  Q 721.46 258.58 721.31 257.75
  L 716.21 228.57
  Q 715.93 226.97 714.32 227.11
  L 712.00 227.32
  Q 710.94 227.41 711.20 228.44
  Q 714.78 242.75 717.50 256.96
  Q 718.05 259.84 718.89 262.76
  Q 719.04 263.31 719.59 263.46
  Q 721.51 263.98 723.51 263.51
  A 1.31 1.30 -86.6 0 0 724.45 262.67
  Q 724.90 261.46 725.26 259.99
  Q 728.44 246.85 730.83 234.30
  Q 731.13 232.73 731.58 234.27
  Q 735.48 247.77 738.62 262.04
  A 1.92 1.91 1.3 0 0 740.00 263.48
  C 744.97 264.81 745.09 261.85 745.70 258.48
  Q 748.37 243.62 751.63 228.66
  Q 752.09 226.57 749.99 227.00
  L 749.30 227.14
  Q 747.58 227.49 747.29 229.22
  Q 745.09 242.18 741.74 257.07
  Z
  M 470.87 227.28
  L 468.51 227.30
  A 0.85 0.85 0.0 0 0 467.67 228.15
  L 467.81 248.49
  A 15.01 1.37 89.6 0 0 469.29 263.49
  L 470.61 263.48
  A 15.01 1.37 89.6 0 0 471.87 248.47
  L 471.73 228.13
  A 0.85 0.85 0.0 0 0 470.87 227.28
  Z
  M 489.66 231.82
  Q 490.08 234.30 489.97 236.92
  Q 489.49 248.36 490.66 262.24
  Q 490.81 264.08 492.56 263.37
  A 1.12 1.11 84.3 0 0 493.24 262.53
  Q 493.84 259.26 493.98 255.76
  Q 494.40 244.89 493.90 232.34
  A 1.32 1.32 0.0 0 1 495.24 230.97
  L 504.03 231.09
  A 1.58 1.58 0.0 0 0 505.61 229.73
  L 505.75 228.69
  Q 505.96 227.18 504.44 227.20
  L 480.03 227.56
  Q 478.48 227.58 478.38 229.12
  L 478.35 229.54
  Q 478.26 230.82 479.54 230.87
  L 489.01 231.25
  Q 489.57 231.27 489.66 231.82
  Z
  M 680.60 231.19
  A 0.85 0.85 0.0 0 1 681.46 232.04
  L 681.51 262.72
  A 0.85 0.85 0.0 0 0 682.29 263.56
  L 685.16 263.80
  A 0.85 0.85 0.0 0 0 686.08 262.95
  L 686.10 232.08
  A 0.85 0.85 0.0 0 1 686.95 231.23
  L 696.26 231.18
  A 0.85 0.85 0.0 0 0 697.10 230.41
  L 697.30 228.19
  A 0.85 0.85 0.0 0 0 696.46 227.26
  L 671.19 227.23
  A 0.85 0.85 0.0 0 0 670.34 228.05
  L 670.26 230.41
  A 0.85 0.85 0.0 0 0 671.12 231.29
  L 680.60 231.19
  Z
  M 762.90 247.03
  A 0.75 0.75 0.0 0 1 763.62 246.29
  L 776.09 245.88
  A 0.75 0.75 0.0 0 0 776.82 245.10
  L 776.74 243.41
  A 0.75 0.75 0.0 0 0 776.01 242.69
  L 763.59 242.40
  A 0.75 0.75 0.0 0 1 762.86 241.65
  L 762.84 231.96
  A 0.75 0.75 0.0 0 1 763.58 231.21
  L 778.35 230.95
  A 0.75 0.75 0.0 0 0 779.07 230.31
  L 779.38 228.29
  A 0.75 0.75 0.0 0 0 778.65 227.43
  L 759.19 227.17
  A 0.75 0.75 0.0 0 0 758.43 227.92
  L 758.48 262.87
  A 0.75 0.75 0.0 0 0 759.25 263.62
  L 778.88 263.12
  A 0.75 0.75 0.0 0 0 779.61 262.31
  L 779.48 260.71
  A 0.75 0.75 0.0 0 0 778.76 260.02
  L 763.60 259.50
  A 0.75 0.75 0.0 0 1 762.87 258.75
  L 762.90 247.03
  Z
  M 798.64 228.20
  L 798.82 262.74
  A 1.02 1.02 0.0 0 0 799.85 263.75
  L 808.45 263.71
  A 16.76 16.73 -0.3 0 0 825.12 246.89
  L 825.10 243.77
  A 16.76 16.73 -0.3 0 0 808.25 227.13
  L 799.65 227.17
  A 1.02 1.02 0.0 0 0 798.64 228.20
  Z
  M 876.07 260.70
  A 3.41 3.41 0.0 0 0 872.66 257.29
  A 3.41 3.41 0.0 0 0 869.25 260.70
  A 3.41 3.41 0.0 0 0 872.66 264.11
  A 3.41 3.41 0.0 0 0 876.07 260.70
  Z"
/>
<rect fill="#22219a" x="21.53" y="35.81" width="556.70" height="9.36" rx="0.27"/>
<path fill="#22219a" d="
  M 1344.72 196.84
  A 0.37 0.37 0.0 0 1 1344.35 197.21
  L 602.03 197.21
  A 0.37 0.37 0.0 0 1 601.66 196.84
  L 601.66 36.60
  A 0.37 0.37 0.0 0 1 602.03 36.23
  L 1344.35 36.23
  A 0.37 0.37 0.0 0 1 1344.72 36.60
  L 1344.72 196.84
  Z
  M 718.69 80.61
  Q 716.10 87.19 716.12 96.66
  Q 716.17 115.78 716.13 136.06
  C 716.10 150.32 719.83 163.78 736.38 164.68
  Q 752.48 165.56 779.75 164.94
  C 788.01 164.76 795.79 163.09 799.76 155.14
  C 804.22 146.23 803.98 135.71 803.90 125.84
  Q 803.78 111.18 803.71 96.78
  C 803.68 89.54 802.27 80.70 797.55 75.40
  C 792.86 70.14 783.96 68.09 776.67 68.09
  Q 759.24 68.10 742.15 68.15
  C 733.14 68.18 722.20 71.71 718.69 80.61
  Z
  M 1226.1950 90.9364
  A 22.59 22.59 0.0 0 0 1203.6445 68.3070
  L 1161.2846 68.2331
  A 22.59 22.59 0.0 0 0 1138.6552 90.7836
  L 1138.5650 142.4636
  A 22.59 22.59 0.0 0 0 1161.1155 165.0930
  L 1203.4754 165.1669
  A 22.59 22.59 0.0 0 0 1226.1048 142.6164
  L 1226.1950 90.9364
  Z
  M 682.15 128.52
  C 682.23 132.91 682.63 138.19 681.70 142.45
  Q 680.93 146.01 677.04 146.13
  Q 666.46 146.44 654.75 145.85
  Q 640.46 145.13 626.79 144.44
  Q 625.77 144.38 625.77 145.40
  L 625.76 162.12
  A 0.86 0.86 0.0 0 0 626.57 162.98
  Q 648.31 164.47 669.68 164.86
  C 675.79 164.97 682.11 165.41 687.84 164.53
  Q 705.72 161.77 706.47 143.12
  Q 706.82 134.40 706.10 126.36
  Q 705.66 121.46 702.45 116.35
  C 698.65 110.30 690.62 107.72 683.99 107.49
  Q 672.58 107.09 657.46 107.28
  Q 654.15 107.33 651.53 106.06
  C 647.56 104.14 647.79 93.58 650.75 90.62
  C 653.19 88.17 658.26 88.28 661.51 88.29
  Q 678.90 88.37 697.82 88.33
  Q 698.65 88.33 698.65 87.50
  L 698.69 71.17
  A 1.02 1.01 -90.0 0 0 697.68 70.15
  Q 672.41 70.13 648.75 70.21
  C 641.00 70.24 631.06 73.17 627.53 80.86
  C 624.12 88.29 624.10 98.17 624.98 106.25
  C 626.06 116.13 629.73 123.93 640.29 126.04
  Q 648.44 127.66 657.68 127.69
  Q 669.53 127.72 681.24 127.63
  Q 682.14 127.62 682.15 128.52
  Z
  M 842.00 145.23
  A 0.77 0.77 0.0 0 1 841.23 144.46
  Q 841.10 109.23 841.16 75.14
  C 841.17 73.74 841.40 72.21 841.54 70.82
  Q 841.61 70.11 840.90 70.11
  L 818.04 70.09
  Q 816.87 70.08 817.07 71.23
  Q 817.23 72.19 817.23 73.14
  Q 817.38 118.63 817.26 163.12
  A 0.75 0.75 0.0 0 0 818.01 163.87
  L 890.11 163.99
  A 0.16 0.16 0.0 0 0 890.27 163.83
  L 890.26 145.84
  Q 890.26 145.17 889.59 145.17
  L 842.00 145.23
  Z
  M 933.07 146.27
  C 930.51 146.15 926.35 145.65 925.36 142.75
  Q 924.26 139.55 924.26 136.55
  Q 924.25 103.76 924.25 70.74
  Q 924.25 70.35 923.87 70.33
  Q 912.28 69.73 900.53 70.21
  Q 899.93 70.24 899.93 70.84
  Q 900.00 105.45 900.04 140.25
  C 900.05 149.55 904.76 161.45 914.61 163.81
  Q 918.97 164.85 924.07 164.96
  Q 944.28 165.38 962.02 164.90
  C 969.13 164.70 976.09 163.14 980.07 156.67
  Q 984.14 150.05 984.56 143.93
  Q 985.04 137.03 985.02 130.73
  Q 984.97 101.56 984.88 71.16
  A 0.81 0.80 -88.9 0 0 984.12 70.36
  Q 973.34 69.77 961.11 70.26
  Q 960.53 70.28 960.54 70.85
  Q 960.73 108.09 960.45 138.74
  Q 960.39 145.72 952.99 146.16
  Q 943.21 146.73 933.07 146.27
  Z
  M 1021.32 88.27
  Q 1022.55 88.27 1022.55 89.49
  Q 1022.65 127.03 1022.75 159.31
  Q 1022.76 161.16 1023.05 163.02
  A 0.97 0.97 0.0 0 0 1024.00 163.84
  L 1045.94 164.03
  A 0.70 0.70 0.0 0 0 1046.63 163.42
  Q 1046.99 160.51 1046.99 157.50
  Q 1046.96 123.12 1046.97 89.40
  Q 1046.98 88.38 1048.00 88.38
  L 1074.99 88.33
  A 0.55 0.54 -2.0 0 0 1075.53 87.76
  Q 1075.11 79.18 1075.59 70.82
  A 0.62 0.62 0.0 0 0 1074.97 70.16
  L 994.76 70.19
  A 0.30 0.30 0.0 0 0 994.46 70.49
  L 994.52 87.35
  Q 994.53 88.43 995.60 88.43
  L 1021.32 88.27
  Z
  M 1091.89 88.52
  A 0.87 0.86 -89.3 0 1 1092.73 89.39
  L 1092.77 143.98
  Q 1092.77 145.23 1091.52 145.23
  L 1081.57 145.24
  A 0.72 0.71 2.1 0 0 1080.85 145.90
  Q 1080.17 154.00 1080.67 163.10
  Q 1080.70 163.67 1081.27 163.70
  Q 1085.80 163.97 1089.75 163.94
  Q 1108.91 163.79 1128.22 164.00
  A 0.77 0.76 -89.6 0 0 1128.99 163.23
  L 1128.98 145.72
  A 0.51 0.51 0.0 0 0 1128.47 145.21
  L 1118.37 145.20
  A 1.38 1.37 90.0 0 1 1117.00 143.82
  L 1117.01 89.06
  A 0.68 0.68 0.0 0 1 1117.68 88.38
  L 1128.49 88.24
  A 0.60 0.60 0.0 0 0 1129.08 87.62
  Q 1128.82 79.11 1129.18 70.87
  Q 1129.21 70.14 1128.48 70.14
  L 1080.73 70.17
  A 0.35 0.35 0.0 0 0 1080.38 70.52
  L 1080.52 87.52
  A 0.77 0.76 0.8 0 0 1081.27 88.28
  L 1091.89 88.52
  Z
  M 1296.88 124.74
  Q 1287.66 109.17 1278.46 92.81
  C 1274.32 85.43 1269.72 78.48 1266.10 70.88
  A 1.53 1.52 76.9 0 0 1264.73 70.02
  L 1240.04 70.16
  A 0.69 0.68 87.0 0 0 1239.36 70.92
  Q 1239.54 72.48 1239.54 73.99
  Q 1239.68 116.86 1239.55 163.09
  A 0.90 0.90 0.0 0 0 1240.45 163.99
  L 1262.62 164.00
  Q 1263.97 164.00 1263.98 162.65
  Q 1264.07 138.87 1263.91 112.36
  Q 1263.90 110.69 1264.30 108.98
  Q 1264.68 107.35 1265.35 108.88
  Q 1267.71 114.24 1270.92 119.81
  C 1279.38 134.48 1287.53 149.07 1296.09 163.36
  Q 1296.46 163.98 1297.18 163.98
  L 1320.30 164.00
  Q 1321.72 164.00 1321.72 162.58
  Q 1321.79 118.59 1321.74 76.47
  Q 1321.74 74.01 1321.42 71.60
  Q 1321.22 70.17 1319.79 70.12
  Q 1308.74 69.73 1297.75 70.32
  Q 1297.55 70.33 1297.55 70.53
  L 1297.62 124.54
  A 0.40 0.40 0.0 0 1 1296.88 124.74
  Z"
/>
<path fill="#ffffff" d="
  M 718.69 80.61
  C 722.20 71.71 733.14 68.18 742.15 68.15
  Q 759.24 68.10 776.67 68.09
  C 783.96 68.09 792.86 70.14 797.55 75.40
  C 802.27 80.70 803.68 89.54 803.71 96.78
  Q 803.78 111.18 803.90 125.84
  C 803.98 135.71 804.22 146.23 799.76 155.14
  C 795.79 163.09 788.01 164.76 779.75 164.94
  Q 752.48 165.56 736.38 164.68
  C 719.83 163.78 716.10 150.32 716.13 136.06
  Q 716.17 115.78 716.12 96.66
  Q 716.10 87.19 718.69 80.61
  Z
  M 779.29 94.13
  A 7.39 7.39 0.0 0 0 771.90 86.74
  L 747.60 86.74
  A 7.39 7.39 0.0 0 0 740.21 94.13
  L 740.21 138.97
  A 7.39 7.39 0.0 0 0 747.60 146.36
  L 771.90 146.36
  A 7.39 7.39 0.0 0 0 779.29 138.97
  L 779.29 94.13
  Z"
/>
<path fill="#ffffff" d="
  M 1226.1048 142.6164
  A 22.59 22.59 0.0 0 1 1203.4754 165.1669
  L 1161.1155 165.0930
  A 22.59 22.59 0.0 0 1 1138.5650 142.4636
  L 1138.6552 90.7836
  A 22.59 22.59 0.0 0 1 1161.2846 68.2331
  L 1203.6445 68.3070
  A 22.59 22.59 0.0 0 1 1226.1950 90.9364
  L 1226.1048 142.6164
  Z
  M 1201.89 94.53
  A 7.78 7.78 0.0 0 0 1194.11 86.75
  L 1170.53 86.75
  A 7.78 7.78 0.0 0 0 1162.75 94.53
  L 1162.75 138.61
  A 7.78 7.78 0.0 0 0 1170.53 146.39
  L 1194.11 146.39
  A 7.78 7.78 0.0 0 0 1201.89 138.61
  L 1201.89 94.53
  Z"
/>
<path fill="#22219a" d="
  M 55.53 146.61
  A 1.58 1.57 -77.1 0 0 54.07 147.53
  Q 50.63 155.20 48.35 162.92
  A 1.62 1.62 0.0 0 1 46.77 164.08
  Q 34.18 163.86 23.15 164.17
  Q 21.58 164.22 22.14 162.75
  L 56.82 71.28
  A 1.99 1.99 0.0 0 1 58.68 70.00
  L 83.81 69.98
  A 1.19 1.19 0.0 0 1 84.93 70.77
  C 86.92 76.49 88.90 82.29 91.10 87.76
  C 95.78 99.35 99.72 110.90 104.43 122.55
  C 107.05 129.03 109.10 135.88 111.79 142.32
  Q 115.78 151.83 119.57 163.19
  A 0.77 0.76 81.8 0 1 118.82 164.20
  Q 106.87 163.74 95.54 164.19
  Q 93.73 164.26 93.13 162.56
  L 87.79 147.40
  A 1.04 1.02 79.6 0 0 86.81 146.71
  Q 70.27 146.95 55.53 146.61
  Z
  M 60.28 128.98
  A 0.41 0.41 0.0 0 0 60.67 129.52
  L 81.04 129.56
  A 0.41 0.41 0.0 0 0 81.42 129.02
  L 71.29 98.83
  A 0.41 0.41 0.0 0 0 70.52 98.83
  L 60.28 128.98
  Z"
/>
<path fill="#22219a" d="
  M 126.80 70.81
  A 0.82 0.82 0.0 0 1 127.62 69.99
  L 181.91 69.90
  A 28.27 27.35 -0.1 0 1 210.23 97.20
  L 210.29 136.62
  A 28.27 27.35 -0.1 0 1 182.07 164.02
  L 127.78 164.11
  A 0.82 0.82 0.0 0 1 126.96 163.29
  L 126.80 70.81
  Z
  M 150.81 89.79
  L 151.09 143.99
  A 1.21 1.21 0.0 0 0 152.31 145.20
  L 174.04 145.08
  A 12.36 11.91 -0.3 0 0 186.34 133.11
  L 186.16 100.31
  A 12.36 11.91 -0.3 0 0 173.74 88.46
  L 152.01 88.58
  A 1.21 1.21 0.0 0 0 150.81 89.79
  Z"
/>
<path fill="#22219a" d="
  M 292.49 114.40
  C 294.16 115.29 296.08 115.86 297.60 116.96
  C 306.20 123.20 308.17 132.68 307.24 142.82
  C 305.72 159.23 294.90 164.09 280.27 164.05
  Q 252.03 163.96 224.82 164.12
  A 0.80 0.80 0.0 0 1 224.02 163.32
  L 224.01 70.53
  Q 224.01 70.00 224.53 70.00
  Q 256.53 70.12 276.57 69.92
  Q 282.74 69.86 288.94 71.53
  C 295.34 73.26 299.47 76.75 301.52 82.93
  C 304.71 92.52 303.95 102.52 297.10 110.08
  C 295.74 111.59 294.00 112.29 292.42 113.50
  Q 291.75 114.01 292.49 114.40
  Z
  M 248.06 89.75
  L 248.12 106.09
  A 1.18 1.18 0.0 0 0 249.30 107.27
  L 271.53 107.19
  A 7.47 6.92 -0.2 0 0 278.98 100.25
  L 278.96 95.39
  A 7.47 6.92 -0.2 0 0 271.47 88.49
  L 249.24 88.57
  A 1.18 1.18 0.0 0 0 248.06 89.75
  Z
  M 248.11 127.02
  L 248.11 144.06
  A 1.05 1.05 0.0 0 0 249.16 145.11
  L 275.18 145.11
  A 8.20 7.93 90.0 0 0 283.11 136.91
  L 283.11 134.17
  A 8.20 7.93 -90.0 0 0 275.18 125.97
  L 249.16 125.97
  A 1.05 1.05 0.0 0 0 248.11 127.02
  Z"
/>
<path fill="#22219a" d="
  M 344.54 144.89
  A 0.32 0.32 0.0 0 0 344.85 145.12
  L 392.05 145.08
  A 0.96 0.96 0.0 0 1 393.01 146.05
  L 393.00 163.01
  A 1.01 1.01 0.0 0 1 391.99 164.01
  L 320.46 164.05
  A 1.07 1.07 0.0 0 1 319.39 162.98
  Q 319.39 117.74 319.37 74.09
  Q 319.37 72.67 319.15 71.23
  Q 318.96 69.96 320.24 69.96
  L 342.78 69.98
  Q 343.99 69.98 343.99 71.19
  Q 344.10 103.22 343.96 140.88
  Q 343.95 142.84 344.54 144.89
  Z"
/>
<path fill="#22219a" d="
  M 428.90 144.38
  Q 431.31 146.05 434.53 146.13
  Q 444.32 146.36 453.75 146.26
  Q 457.31 146.22 460.63 144.60
  A 1.71 1.66 -0.4 0 0 461.38 143.86
  Q 462.94 140.75 462.95 137.80
  Q 463.08 105.28 462.97 72.62
  Q 462.96 71.79 462.84 70.95
  Q 462.71 70.01 463.65 70.01
  L 486.67 69.93
  Q 487.33 69.93 487.33 70.58
  Q 487.42 107.75 487.27 140.66
  C 487.22 150.44 482.43 161.62 472.40 163.88
  Q 466.90 165.12 459.95 165.19
  Q 444.52 165.34 428.22 165.14
  Q 422.04 165.07 416.68 163.72
  C 404.76 160.72 402.06 145.90 402.08 135.09
  Q 402.14 104.19 402.09 70.38
  A 0.44 0.43 -90.0 0 1 402.52 69.94
  L 426.20 69.97
  A 0.56 0.56 0.0 0 1 426.76 70.53
  Q 426.72 103.18 426.77 137.66
  C 426.78 139.62 427.22 143.20 428.90 144.38
  Z"
/>
<path fill="#22219a" d="
  M 527.77 126.35
  L 527.74 143.94
  A 1.20 1.20 0.0 0 0 528.94 145.14
  L 577.41 145.08
  A 0.83 0.83 0.0 0 1 578.24 145.91
  L 578.25 163.00
  A 1.01 1.00 -90.0 0 1 577.25 164.01
  L 504.47 164.07
  A 0.85 0.84 -90.0 0 1 503.63 163.22
  L 503.69 70.33
  A 0.32 0.32 0.0 0 1 504.01 70.01
  L 577.25 70.00
  A 1.01 1.00 -0.0 0 1 578.26 71.00
  L 578.30 87.28
  A 1.19 1.19 0.0 0 1 577.12 88.47
  Q 556.19 88.57 535.50 88.48
  Q 532.09 88.47 528.35 88.80
  Q 527.75 88.85 527.75 89.46
  L 527.72 105.48
  A 0.77 0.76 90.0 0 0 528.48 106.25
  L 566.64 106.25
  A 0.90 0.89 0.3 0 1 567.53 107.14
  L 567.51 124.78
  A 0.79 0.79 0.0 0 1 566.72 125.57
  L 528.40 125.72
  Q 527.77 125.72 527.77 126.35
  Z"
/>
<path fill="#ffffff" d="
  M 681.24 127.63
  Q 669.53 127.72 657.68 127.69
  Q 648.44 127.66 640.29 126.04
  C 629.73 123.93 626.06 116.13 624.98 106.25
  C 624.10 98.17 624.12 88.29 627.53 80.86
  C 631.06 73.17 641.00 70.24 648.75 70.21
  Q 672.41 70.13 697.68 70.15
  A 1.02 1.01 90.0 0 1 698.69 71.17
  L 698.65 87.50
  Q 698.65 88.33 697.82 88.33
  Q 678.90 88.37 661.51 88.29
  C 658.26 88.28 653.19 88.17 650.75 90.62
  C 647.79 93.58 647.56 104.14 651.53 106.06
  Q 654.15 107.33 657.46 107.28
  Q 672.58 107.09 683.99 107.49
  C 690.62 107.72 698.65 110.30 702.45 116.35
  Q 705.66 121.46 706.10 126.36
  Q 706.82 134.40 706.47 143.12
  Q 705.72 161.77 687.84 164.53
  C 682.11 165.41 675.79 164.97 669.68 164.86
  Q 648.31 164.47 626.57 162.98
  A 0.86 0.86 0.0 0 1 625.76 162.12
  L 625.77 145.40
  Q 625.77 144.38 626.79 144.44
  Q 640.46 145.13 654.75 145.85
  Q 666.46 146.44 677.04 146.13
  Q 680.93 146.01 681.70 142.45
  C 682.63 138.19 682.23 132.91 682.15 128.52
  Q 682.14 127.62 681.24 127.63
  Z"
/>
<path fill="#ffffff" d="
  M 842.00 145.23
  L 889.59 145.17
  Q 890.26 145.17 890.26 145.84
  L 890.27 163.83
  A 0.16 0.16 0.0 0 1 890.11 163.99
  L 818.01 163.87
  A 0.75 0.75 0.0 0 1 817.26 163.12
  Q 817.38 118.63 817.23 73.14
  Q 817.23 72.19 817.07 71.23
  Q 816.87 70.08 818.04 70.09
  L 840.90 70.11
  Q 841.61 70.11 841.54 70.82
  C 841.40 72.21 841.17 73.74 841.16 75.14
  Q 841.10 109.23 841.23 144.46
  A 0.77 0.77 0.0 0 0 842.00 145.23
  Z"
/>
<path fill="#ffffff" d="
  M 925.36 142.75
  C 926.35 145.65 930.51 146.15 933.07 146.27
  Q 943.21 146.73 952.99 146.16
  Q 960.39 145.72 960.45 138.74
  Q 960.73 108.09 960.54 70.85
  Q 960.53 70.28 961.11 70.26
  Q 973.34 69.77 984.12 70.36
  A 0.81 0.80 -88.9 0 1 984.88 71.16
  Q 984.97 101.56 985.02 130.73
  Q 985.04 137.03 984.56 143.93
  Q 984.14 150.05 980.07 156.67
  C 976.09 163.14 969.13 164.70 962.02 164.90
  Q 944.28 165.38 924.07 164.96
  Q 918.97 164.85 914.61 163.81
  C 904.76 161.45 900.05 149.55 900.04 140.25
  Q 900.00 105.45 899.93 70.84
  Q 899.93 70.24 900.53 70.21
  Q 912.28 69.73 923.87 70.33
  Q 924.25 70.35 924.25 70.74
  Q 924.25 103.76 924.26 136.55
  Q 924.26 139.55 925.36 142.75
  Z"
/>
<path fill="#ffffff" d="
  M 1021.32 88.27
  L 995.60 88.43
  Q 994.53 88.43 994.52 87.35
  L 994.46 70.49
  A 0.30 0.30 0.0 0 1 994.76 70.19
  L 1074.97 70.16
  A 0.62 0.62 0.0 0 1 1075.59 70.82
  Q 1075.11 79.18 1075.53 87.76
  A 0.55 0.54 -2.0 0 1 1074.99 88.33
  L 1048.00 88.38
  Q 1046.98 88.38 1046.97 89.40
  Q 1046.96 123.12 1046.99 157.50
  Q 1046.99 160.51 1046.63 163.42
  A 0.70 0.70 0.0 0 1 1045.94 164.03
  L 1024.00 163.84
  A 0.97 0.97 0.0 0 1 1023.05 163.02
  Q 1022.76 161.16 1022.75 159.31
  Q 1022.65 127.03 1022.55 89.49
  Q 1022.55 88.27 1021.32 88.27
  Z"
/>
<path fill="#ffffff" d="
  M 1091.89 88.52
  L 1081.27 88.28
  A 0.77 0.76 0.8 0 1 1080.52 87.52
  L 1080.38 70.52
  A 0.35 0.35 0.0 0 1 1080.73 70.17
  L 1128.48 70.14
  Q 1129.21 70.14 1129.18 70.87
  Q 1128.82 79.11 1129.08 87.62
  A 0.60 0.60 0.0 0 1 1128.49 88.24
  L 1117.68 88.38
  A 0.68 0.68 0.0 0 0 1117.01 89.06
  L 1117.00 143.82
  A 1.38 1.37 90.0 0 0 1118.37 145.20
  L 1128.47 145.21
  A 0.51 0.51 0.0 0 1 1128.98 145.72
  L 1128.99 163.23
  A 0.77 0.76 -89.6 0 1 1128.22 164.00
  Q 1108.91 163.79 1089.75 163.94
  Q 1085.80 163.97 1081.27 163.70
  Q 1080.70 163.67 1080.67 163.10
  Q 1080.17 154.00 1080.85 145.90
  A 0.72 0.71 2.1 0 1 1081.57 145.24
  L 1091.52 145.23
  Q 1092.77 145.23 1092.77 143.98
  L 1092.73 89.39
  A 0.87 0.86 -89.3 0 0 1091.89 88.52
  Z"
/>
<path fill="#ffffff" d="
  M 1296.88 124.74
  A 0.40 0.40 0.0 0 0 1297.62 124.54
  L 1297.55 70.53
  Q 1297.55 70.33 1297.75 70.32
  Q 1308.74 69.73 1319.79 70.12
  Q 1321.22 70.17 1321.42 71.60
  Q 1321.74 74.01 1321.74 76.47
  Q 1321.79 118.59 1321.72 162.58
  Q 1321.72 164.00 1320.30 164.00
  L 1297.18 163.98
  Q 1296.46 163.98 1296.09 163.36
  C 1287.53 149.07 1279.38 134.48 1270.92 119.81
  Q 1267.71 114.24 1265.35 108.88
  Q 1264.68 107.35 1264.30 108.98
  Q 1263.90 110.69 1263.91 112.36
  Q 1264.07 138.87 1263.98 162.65
  Q 1263.97 164.00 1262.62 164.00
  L 1240.45 163.99
  A 0.90 0.90 0.0 0 1 1239.55 163.09
  Q 1239.68 116.86 1239.54 73.99
  Q 1239.54 72.48 1239.36 70.92
  A 0.69 0.68 87.0 0 1 1240.04 70.16
  L 1264.73 70.02
  A 1.53 1.52 76.9 0 1 1266.10 70.88
  C 1269.72 78.48 1274.32 85.43 1278.46 92.81
  Q 1287.66 109.17 1296.88 124.74
  Z"
/>
<rect fill="#22219a" x="740.21" y="86.74" width="39.08" height="59.62" rx="7.39"/>
<rect fill="#22219a" x="1162.75" y="86.75" width="39.14" height="59.64" rx="7.78"/>
<path fill="#ffffff" d="
  M 150.81 89.79
  A 1.21 1.21 0.0 0 1 152.01 88.58
  L 173.74 88.46
  A 12.36 11.91 -0.3 0 1 186.16 100.31
  L 186.34 133.11
  A 12.36 11.91 -0.3 0 1 174.04 145.08
  L 152.31 145.20
  A 1.21 1.21 0.0 0 1 151.09 143.99
  L 150.81 89.79
  Z"
/>
<path fill="#ffffff" d="
  M 248.06 89.75
  A 1.18 1.18 0.0 0 1 249.24 88.57
  L 271.47 88.49
  A 7.47 6.92 -0.2 0 1 278.96 95.39
  L 278.98 100.25
  A 7.47 6.92 -0.2 0 1 271.53 107.19
  L 249.30 107.27
  A 1.18 1.18 0.0 0 1 248.12 106.09
  L 248.06 89.75
  Z"
/>
<path fill="#ffffff" d="
  M 60.28 128.98
  L 70.52 98.83
  A 0.41 0.41 0.0 0 1 71.29 98.83
  L 81.42 129.02
  A 0.41 0.41 0.0 0 1 81.04 129.56
  L 60.67 129.52
  A 0.41 0.41 0.0 0 1 60.28 128.98
  Z"
/>
<path fill="#ffffff" d="
  M 248.11 127.02
  A 1.05 1.05 0.0 0 1 249.16 125.97
  L 275.18 125.97
  A 8.20 7.93 90.0 0 1 283.11 134.17
  L 283.11 136.91
  A 8.20 7.93 90.0 0 1 275.18 145.11
  L 249.16 145.11
  A 1.05 1.05 0.0 0 1 248.11 144.06
  L 248.11 127.02
  Z"
/>
<rect fill="#22219a" x="21.51" y="188.07" width="556.84" height="9.48" rx="0.60"/>
<path fill="#22219a" d="
  M 515.09 225.16
  A 0.93 0.93 0.0 0 1 516.01 226.10
  L 515.99 233.21
  A 6.88 1.16 -89.8 0 1 514.80 240.08
  L 512.66 240.08
  A 6.88 1.16 -89.8 0 1 511.53 233.19
  L 511.55 226.08
  A 0.93 0.93 0.0 0 1 512.49 225.16
  L 515.09 225.16
  Z"
/>
<path fill="#22219a" d="
  M 543.38 233.22
  C 540.25 231.13 532.34 229.21 530.04 233.55
  C 528.17 237.07 530.46 240.15 533.82 241.40
  Q 537.83 242.90 541.62 244.61
  Q 549.06 247.95 547.87 255.57
  C 547.29 259.33 544.26 262.47 540.45 263.30
  Q 533.71 264.77 530.02 263.28
  Q 527.65 262.32 524.62 260.08
  Q 522.91 258.82 524.25 257.16
  L 524.48 256.88
  Q 525.83 255.20 527.38 256.70
  C 530.94 260.17 538.24 262.20 541.92 257.61
  C 545.57 253.04 541.50 249.34 537.45 247.74
  C 533.31 246.10 526.14 243.63 525.15 238.61
  C 523.75 231.45 529.79 225.88 536.49 226.38
  Q 541.75 226.77 545.55 229.66
  Q 547.08 230.82 545.99 232.39
  L 545.73 232.78
  Q 544.77 234.15 543.38 233.22
  Z"
/>
<path fill="#22219a" d="
  M 870.76 251.16
  L 870.16 227.46
  A 1.27 1.27 0.0 0 1 871.43 226.16
  L 873.70 226.17
  A 1.27 1.27 0.0 0 1 874.97 227.47
  L 874.26 251.52
  A 1.27 1.27 0.0 0 1 872.55 252.67
  L 871.59 252.32
  A 1.27 1.27 0.0 0 1 870.76 251.16
  Z"
/>
<path fill="#22219a" d="
  M 846.1600 264.2200
  A 19.00 15.76 90.0 0 1 830.4000 245.2200
  A 19.00 15.76 90.0 0 1 846.1600 226.2200
  A 19.00 15.76 90.0 0 1 861.9200 245.2200
  A 19.00 15.76 90.0 0 1 846.1600 264.2200
  Z
  M 846.1005 260.2094
  A 14.84 10.93 90.5 0 0 857.1596 245.4654
  A 14.84 10.93 90.5 0 0 846.3595 230.5306
  A 14.84 10.93 90.5 0 0 835.3004 245.2746
  A 14.84 10.93 90.5 0 0 846.1005 260.2094
  Z"
/>
<path fill="#22219a" d="
  M 572.68 257.50
  Q 572.95 258.91 573.49 257.58
  Q 574.41 255.32 574.96 252.94
  Q 577.76 240.74 580.86 228.30
  A 1.37 1.37 0.0 0 1 582.11 227.26
  L 584.48 227.11
  Q 585.42 227.05 585.64 227.96
  L 592.80 257.77
  A 0.27 0.27 0.0 0 0 593.19 257.94
  Q 593.41 257.83 593.47 257.50
  Q 596.41 243.29 598.87 228.82
  Q 599.10 227.44 600.49 227.29
  L 602.27 227.11
  Q 603.93 226.94 603.46 228.54
  Q 602.88 230.49 602.50 232.19
  Q 599.11 247.33 596.36 262.55
  A 1.10 1.09 3.3 0 1 595.34 263.45
  L 592.15 263.64
  Q 590.56 263.73 590.19 262.18
  L 583.50 234.26
  Q 583.01 232.24 582.57 234.27
  Q 579.79 247.03 576.66 260.56
  Q 576.34 261.94 575.73 263.10
  A 0.81 0.79 12.0 0 1 575.05 263.53
  L 571.39 263.70
  Q 570.80 263.72 570.59 263.17
  Q 569.44 260.12 569.16 258.46
  Q 566.65 243.81 562.89 228.20
  Q 562.68 227.34 563.55 227.22
  Q 564.97 227.02 566.48 227.24
  A 1.51 1.49 -0.2 0 1 567.75 228.49
  Q 569.46 239.28 571.48 248.67
  C 572.10 251.55 572.11 254.60 572.68 257.50
  Z"
/>
<path fill="#22219a" d="
  M 631.47 241.32
  L 631.35 228.35
  A 1.10 1.10 0.0 0 1 632.39 227.24
  L 634.95 227.09
  A 1.10 1.10 0.0 0 1 636.11 228.19
  L 636.12 262.63
  A 1.10 1.10 0.0 0 1 635.01 263.73
  L 632.48 263.70
  A 1.10 1.10 0.0 0 1 631.39 262.60
  L 631.42 247.40
  A 1.10 1.10 0.0 0 0 630.33 246.30
  L 615.67 246.21
  A 1.10 1.10 0.0 0 0 614.56 247.31
  L 614.58 262.56
  A 1.10 1.10 0.0 0 1 613.48 263.66
  L 611.08 263.65
  A 1.10 1.10 0.0 0 1 609.98 262.55
  L 609.90 228.28
  A 1.10 1.10 0.0 0 1 610.99 227.17
  L 613.46 227.14
  A 1.10 1.10 0.0 0 1 614.57 228.24
  L 614.52 241.40
  A 1.10 1.10 0.0 0 0 615.62 242.50
  L 630.38 242.43
  A 1.10 1.10 0.0 0 0 631.47 241.32
  Z"
/>
<path fill="#22219a" d="
  M 649.17 252.77
  L 646.40 262.18
  Q 645.93 263.77 644.28 263.76
  L 642.81 263.76
  Q 641.06 263.75 641.67 262.12
  Q 646.58 248.87 651.05 234.26
  C 651.91 231.44 653.59 224.50 658.25 227.72
  Q 658.67 228.01 658.85 228.48
  Q 665.24 245.65 670.28 262.23
  Q 670.76 263.78 669.13 263.81
  L 668.20 263.83
  A 2.31 2.31 0.0 0 1 665.96 262.22
  L 663.04 253.12
  A 1.20 1.19 80.7 0 0 661.89 252.29
  L 649.72 252.36
  A 0.59 0.57 7.4 0 0 649.17 252.77
  Z
  M 650.49 247.97
  A 0.32 0.32 0.0 0 0 650.79 248.39
  L 660.95 248.66
  A 0.32 0.32 0.0 0 0 661.27 248.25
  L 656.60 232.08
  A 0.32 0.32 0.0 0 0 655.99 232.07
  L 650.49 247.97
  Z"
/>
<path fill="#22219a" d="
  M 741.74 257.07
  Q 745.09 242.18 747.29 229.22
  Q 747.58 227.49 749.30 227.14
  L 749.99 227.00
  Q 752.09 226.57 751.63 228.66
  Q 748.37 243.62 745.70 258.48
  C 745.09 261.85 744.97 264.81 740.00 263.48
  A 1.92 1.91 1.3 0 1 738.62 262.04
  Q 735.48 247.77 731.58 234.27
  Q 731.13 232.73 730.83 234.30
  Q 728.44 246.85 725.26 259.99
  Q 724.90 261.46 724.45 262.67
  A 1.31 1.30 -86.6 0 1 723.51 263.51
  Q 721.51 263.98 719.59 263.46
  Q 719.04 263.31 718.89 262.76
  Q 718.05 259.84 717.50 256.96
  Q 714.78 242.75 711.20 228.44
  Q 710.94 227.41 712.00 227.32
  L 714.32 227.11
  Q 715.93 226.97 716.21 228.57
  L 721.31 257.75
  Q 721.46 258.58 721.93 257.89
  Q 722.38 257.25 722.55 256.49
  Q 725.82 242.44 729.24 228.81
  C 729.73 226.83 733.49 226.08 734.13 228.45
  Q 738.41 244.29 740.78 257.05
  Q 741.22 259.39 741.74 257.07
  Z"
/>
<path fill="#22219a" d="
  M 470.87 227.28
  A 0.85 0.85 0.0 0 1 471.73 228.13
  L 471.87 248.47
  A 15.01 1.37 89.6 0 1 470.61 263.48
  L 469.29 263.49
  A 15.01 1.37 89.6 0 1 467.81 248.49
  L 467.67 228.15
  A 0.85 0.85 0.0 0 1 468.51 227.30
  L 470.87 227.28
  Z"
/>
<path fill="#22219a" d="
  M 489.01 231.25
  L 479.54 230.87
  Q 478.26 230.82 478.35 229.54
  L 478.38 229.12
  Q 478.48 227.58 480.03 227.56
  L 504.44 227.20
  Q 505.96 227.18 505.75 228.69
  L 505.61 229.73
  A 1.58 1.58 0.0 0 1 504.03 231.09
  L 495.24 230.97
  A 1.32 1.32 0.0 0 0 493.90 232.34
  Q 494.40 244.89 493.98 255.76
  Q 493.84 259.26 493.24 262.53
  A 1.12 1.11 84.3 0 1 492.56 263.37
  Q 490.81 264.08 490.66 262.24
  Q 489.49 248.36 489.97 236.92
  Q 490.08 234.30 489.66 231.82
  Q 489.57 231.27 489.01 231.25
  Z"
/>
<path fill="#22219a" d="
  M 680.60 231.19
  L 671.12 231.29
  A 0.85 0.85 0.0 0 1 670.26 230.41
  L 670.34 228.05
  A 0.85 0.85 0.0 0 1 671.19 227.23
  L 696.46 227.26
  A 0.85 0.85 0.0 0 1 697.30 228.19
  L 697.10 230.41
  A 0.85 0.85 0.0 0 1 696.26 231.18
  L 686.95 231.23
  A 0.85 0.85 0.0 0 0 686.10 232.08
  L 686.08 262.95
  A 0.85 0.85 0.0 0 1 685.16 263.80
  L 682.29 263.56
  A 0.85 0.85 0.0 0 1 681.51 262.72
  L 681.46 232.04
  A 0.85 0.85 0.0 0 0 680.60 231.19
  Z"
/>
<path fill="#22219a" d="
  M 762.90 247.03
  L 762.87 258.75
  A 0.75 0.75 0.0 0 0 763.60 259.50
  L 778.76 260.02
  A 0.75 0.75 0.0 0 1 779.48 260.71
  L 779.61 262.31
  A 0.75 0.75 0.0 0 1 778.88 263.12
  L 759.25 263.62
  A 0.75 0.75 0.0 0 1 758.48 262.87
  L 758.43 227.92
  A 0.75 0.75 0.0 0 1 759.19 227.17
  L 778.65 227.43
  A 0.75 0.75 0.0 0 1 779.38 228.29
  L 779.07 230.31
  A 0.75 0.75 0.0 0 1 778.35 230.95
  L 763.58 231.21
  A 0.75 0.75 0.0 0 0 762.84 231.96
  L 762.86 241.65
  A 0.75 0.75 0.0 0 0 763.59 242.40
  L 776.01 242.69
  A 0.75 0.75 0.0 0 1 776.74 243.41
  L 776.82 245.10
  A 0.75 0.75 0.0 0 1 776.09 245.88
  L 763.62 246.29
  A 0.75 0.75 0.0 0 0 762.90 247.03
  Z"
/>
<path fill="#22219a" d="
  M 798.64 228.20
  A 1.02 1.02 0.0 0 1 799.65 227.17
  L 808.25 227.13
  A 16.76 16.73 -0.3 0 1 825.10 243.77
  L 825.12 246.89
  A 16.76 16.73 -0.3 0 1 808.45 263.71
  L 799.85 263.75
  A 1.02 1.02 0.0 0 1 798.82 262.74
  L 798.64 228.20
  Z
  M 803.56 231.67
  L 803.32 259.21
  A 0.61 0.61 0.0 0 0 803.92 259.82
  L 808.25 259.86
  A 11.93 11.60 -89.5 0 0 819.96 248.03
  L 820.00 243.13
  A 11.93 11.60 -89.5 0 0 808.51 231.10
  L 804.18 231.06
  A 0.61 0.61 0.0 0 0 803.56 231.67
  Z"
/>
<path fill="#ffffff" d="
  M 803.56 231.67
  A 0.61 0.61 0.0 0 1 804.18 231.06
  L 808.51 231.10
  A 11.93 11.60 -89.5 0 1 820.00 243.13
  L 819.96 248.03
  A 11.93 11.60 -89.5 0 1 808.25 259.86
  L 803.92 259.82
  A 0.61 0.61 0.0 0 1 803.32 259.21
  L 803.56 231.67
  Z"
/>
<ellipse fill="#ffffff" cx="0.00" cy="0.00" transform="translate(846.23,245.37) rotate(90.5)" rx="14.84" ry="10.93"/>
<path fill="#ffffff" d="
  M 650.49 247.97
  L 655.99 232.07
  A 0.32 0.32 0.0 0 1 656.60 232.08
  L 661.27 248.25
  A 0.32 0.32 0.0 0 1 660.95 248.66
  L 650.79 248.39
  A 0.32 0.32 0.0 0 1 650.49 247.97
  Z"
/>
<circle fill="#22219a" cx="872.66" cy="260.70" r="3.41"/>
</svg>
